<mxfile host="app.diagrams.net" agent="Mozilla/5.0 (Macintosh; Intel Mac OS X 10_15_7) AppleWebKit/537.36 (KHTML, like Gecko) Chrome/140.0.0.0 Safari/537.36" scale="1" border="0" version="28.2.3">
  <diagram id="JIO4U5yVURzNJD8ckPtT" name="Page-1">
    <mxGraphModel dx="976" dy="565" grid="1" gridSize="10" guides="1" tooltips="1" connect="1" arrows="1" fold="1" page="1" pageScale="1" pageWidth="850" pageHeight="1100" math="0" shadow="0">
      <root>
        <mxCell id="0" />
        <mxCell id="1" parent="0" />
        <mxCell id="o-LIAZ32F6d0INhi9wxW-14" style="edgeStyle=orthogonalEdgeStyle;rounded=0;orthogonalLoop=1;jettySize=auto;html=1;exitX=0.5;exitY=0;exitDx=0;exitDy=0;entryX=0.5;entryY=1;entryDx=0;entryDy=0;" edge="1" parent="1" source="o-LIAZ32F6d0INhi9wxW-2" target="o-LIAZ32F6d0INhi9wxW-7">
          <mxGeometry relative="1" as="geometry" />
        </mxCell>
        <mxCell id="o-LIAZ32F6d0INhi9wxW-18" style="edgeStyle=orthogonalEdgeStyle;rounded=0;orthogonalLoop=1;jettySize=auto;html=1;exitX=1;exitY=0.5;exitDx=0;exitDy=0;entryX=0;entryY=0.75;entryDx=0;entryDy=0;" edge="1" parent="1" source="o-LIAZ32F6d0INhi9wxW-2" target="o-LIAZ32F6d0INhi9wxW-6">
          <mxGeometry relative="1" as="geometry">
            <Array as="points">
              <mxPoint x="220" y="540" />
              <mxPoint x="220" y="310" />
            </Array>
          </mxGeometry>
        </mxCell>
        <mxCell id="o-LIAZ32F6d0INhi9wxW-2" value="Dense input features" style="rounded=1;whiteSpace=wrap;html=1;" vertex="1" parent="1">
          <mxGeometry x="120" y="520" width="80" height="40" as="geometry" />
        </mxCell>
        <mxCell id="o-LIAZ32F6d0INhi9wxW-13" style="edgeStyle=orthogonalEdgeStyle;rounded=0;orthogonalLoop=1;jettySize=auto;html=1;exitX=0.5;exitY=0;exitDx=0;exitDy=0;entryX=0.5;entryY=1;entryDx=0;entryDy=0;" edge="1" parent="1" source="o-LIAZ32F6d0INhi9wxW-3" target="o-LIAZ32F6d0INhi9wxW-6">
          <mxGeometry relative="1" as="geometry" />
        </mxCell>
        <mxCell id="o-LIAZ32F6d0INhi9wxW-17" style="edgeStyle=orthogonalEdgeStyle;rounded=0;orthogonalLoop=1;jettySize=auto;html=1;exitX=0;exitY=0.5;exitDx=0;exitDy=0;entryX=1;entryY=0.25;entryDx=0;entryDy=0;" edge="1" parent="1" source="o-LIAZ32F6d0INhi9wxW-3" target="o-LIAZ32F6d0INhi9wxW-7">
          <mxGeometry relative="1" as="geometry">
            <Array as="points">
              <mxPoint x="260" y="380" />
              <mxPoint x="260" y="290" />
            </Array>
          </mxGeometry>
        </mxCell>
        <mxCell id="o-LIAZ32F6d0INhi9wxW-3" value="Feature embeddings" style="rounded=1;whiteSpace=wrap;html=1;" vertex="1" parent="1">
          <mxGeometry x="280" y="360" width="80" height="40" as="geometry" />
        </mxCell>
        <mxCell id="o-LIAZ32F6d0INhi9wxW-12" style="edgeStyle=orthogonalEdgeStyle;rounded=0;orthogonalLoop=1;jettySize=auto;html=1;exitX=0.5;exitY=0;exitDx=0;exitDy=0;entryX=0.5;entryY=1;entryDx=0;entryDy=0;" edge="1" parent="1" source="o-LIAZ32F6d0INhi9wxW-4" target="o-LIAZ32F6d0INhi9wxW-3">
          <mxGeometry relative="1" as="geometry" />
        </mxCell>
        <mxCell id="o-LIAZ32F6d0INhi9wxW-4" value="Embedding layers" style="rounded=1;whiteSpace=wrap;html=1;" vertex="1" parent="1">
          <mxGeometry x="280" y="440" width="80" height="40" as="geometry" />
        </mxCell>
        <mxCell id="o-LIAZ32F6d0INhi9wxW-11" style="edgeStyle=orthogonalEdgeStyle;rounded=0;orthogonalLoop=1;jettySize=auto;html=1;exitX=0.5;exitY=0;exitDx=0;exitDy=0;entryX=0.5;entryY=1;entryDx=0;entryDy=0;" edge="1" parent="1" source="o-LIAZ32F6d0INhi9wxW-5" target="o-LIAZ32F6d0INhi9wxW-4">
          <mxGeometry relative="1" as="geometry" />
        </mxCell>
        <mxCell id="o-LIAZ32F6d0INhi9wxW-5" value="Sparse input features" style="rounded=1;whiteSpace=wrap;html=1;" vertex="1" parent="1">
          <mxGeometry x="280" y="520" width="80" height="40" as="geometry" />
        </mxCell>
        <mxCell id="o-LIAZ32F6d0INhi9wxW-20" style="edgeStyle=orthogonalEdgeStyle;rounded=0;orthogonalLoop=1;jettySize=auto;html=1;exitX=0.5;exitY=0;exitDx=0;exitDy=0;entryX=1;entryY=0.5;entryDx=0;entryDy=0;" edge="1" parent="1" source="o-LIAZ32F6d0INhi9wxW-6" target="o-LIAZ32F6d0INhi9wxW-8">
          <mxGeometry relative="1" as="geometry" />
        </mxCell>
        <mxCell id="o-LIAZ32F6d0INhi9wxW-6" value="Deep neural network" style="rounded=1;whiteSpace=wrap;html=1;" vertex="1" parent="1">
          <mxGeometry x="280" y="280" width="80" height="40" as="geometry" />
        </mxCell>
        <mxCell id="o-LIAZ32F6d0INhi9wxW-19" style="edgeStyle=orthogonalEdgeStyle;rounded=0;orthogonalLoop=1;jettySize=auto;html=1;exitX=0.5;exitY=0;exitDx=0;exitDy=0;entryX=0;entryY=0.5;entryDx=0;entryDy=0;" edge="1" parent="1" source="o-LIAZ32F6d0INhi9wxW-7" target="o-LIAZ32F6d0INhi9wxW-8">
          <mxGeometry relative="1" as="geometry" />
        </mxCell>
        <mxCell id="o-LIAZ32F6d0INhi9wxW-7" value="Cross network" style="rounded=1;whiteSpace=wrap;html=1;" vertex="1" parent="1">
          <mxGeometry x="120" y="280" width="80" height="40" as="geometry" />
        </mxCell>
        <mxCell id="o-LIAZ32F6d0INhi9wxW-21" style="edgeStyle=orthogonalEdgeStyle;rounded=0;orthogonalLoop=1;jettySize=auto;html=1;exitX=0.5;exitY=0;exitDx=0;exitDy=0;entryX=0.5;entryY=1;entryDx=0;entryDy=0;" edge="1" parent="1" source="o-LIAZ32F6d0INhi9wxW-8" target="o-LIAZ32F6d0INhi9wxW-9">
          <mxGeometry relative="1" as="geometry" />
        </mxCell>
        <mxCell id="o-LIAZ32F6d0INhi9wxW-8" value="Concatenate" style="rounded=1;whiteSpace=wrap;html=1;" vertex="1" parent="1">
          <mxGeometry x="200" y="200" width="80" height="40" as="geometry" />
        </mxCell>
        <mxCell id="o-LIAZ32F6d0INhi9wxW-22" style="edgeStyle=orthogonalEdgeStyle;rounded=0;orthogonalLoop=1;jettySize=auto;html=1;exitX=0.5;exitY=0;exitDx=0;exitDy=0;entryX=0.5;entryY=1;entryDx=0;entryDy=0;" edge="1" parent="1" source="o-LIAZ32F6d0INhi9wxW-9" target="o-LIAZ32F6d0INhi9wxW-10">
          <mxGeometry relative="1" as="geometry" />
        </mxCell>
        <mxCell id="o-LIAZ32F6d0INhi9wxW-9" value="Sigmoid" style="rounded=1;whiteSpace=wrap;html=1;" vertex="1" parent="1">
          <mxGeometry x="200" y="120" width="80" height="40" as="geometry" />
        </mxCell>
        <mxCell id="o-LIAZ32F6d0INhi9wxW-10" value="Probability" style="rounded=1;whiteSpace=wrap;html=1;" vertex="1" parent="1">
          <mxGeometry x="200" y="40" width="80" height="40" as="geometry" />
        </mxCell>
      </root>
    </mxGraphModel>
  </diagram>
</mxfile>
